<?xml version="1.0" encoding="UTF-8" standalone="no"?>
<!-- Created with Inkscape (http://www.inkscape.org/) -->

<svg
   width="512"
   height="128"
   viewBox="0 0 512 128"
   version="1.1"
   id="svg1"
   xmlns:inkscape="http://www.inkscape.org/namespaces/inkscape"
   xmlns:sodipodi="http://sodipodi.sourceforge.net/DTD/sodipodi-0.dtd"
   xmlns:xlink="http://www.w3.org/1999/xlink"
   xmlns="http://www.w3.org/2000/svg"
   xmlns:svg="http://www.w3.org/2000/svg">
  <defs
     id="defs1">
    <linearGradient
       id="linearGradient3"
       inkscape:collect="always">
      <stop
         style="stop-color:#384160;stop-opacity:1;"
         offset="0"
         id="stop3" />
      <stop
         style="stop-color:#95acff;stop-opacity:1;"
         offset="1"
         id="stop4" />
    </linearGradient>
    <linearGradient
       id="linearGradient1"
       inkscape:collect="always">
      <stop
         style="stop-color:#384160;stop-opacity:1;"
         offset="0"
         id="stop1" />
      <stop
         style="stop-color:#adbae8;stop-opacity:1;"
         offset="1"
         id="stop2" />
    </linearGradient>
    <linearGradient
       inkscape:collect="always"
       xlink:href="#linearGradient1"
       id="linearGradient2"
       x1="128.09852"
       y1="61.314048"
       x2="500.65862"
       y2="61.314048"
       gradientUnits="userSpaceOnUse" />
    <linearGradient
       inkscape:collect="always"
       xlink:href="#linearGradient3"
       id="linearGradient4"
       x1="126.53871"
       y1="61.314048"
       x2="501.69091"
       y2="61.314048"
       gradientUnits="userSpaceOnUse"
       gradientTransform="matrix(0.97101858,0,0,0.97101858,15.103493,-2.2230318)" />
  </defs>
  <g
     id="layer1"
     transform="matrix(3.7144291,0,0,3.7144291,0.97055898,0.37158223)">
    <g
       id="g21"
       transform="matrix(0.13152823,0,0,0.13152823,-0.64548955,-1.4757197)">
      <path
         id="rect11"
         style="fill:#95acff;fill-opacity:1;stroke:#f17e06;stroke-width:0.308972"
         d="m 19.149219,42.539522 v 62.111458 l 50.260498,22.31801 V 56.216207 Z m 56.789815,15.453321 25.616526,41.780395 30.7914,-26.430945 z m -2.87631,2.254642 v 63.984205 l 25.702824,-22.06325 z m 60.620076,16.762801 -30.19299,25.917794 30.19299,49.24454 z m -32.983,28.313004 -27.287227,23.42337 57.229067,25.41241 z m -81.550581,4.12429 v 61.06346 l 46.88396,-40.24509 z m 50.260498,22.73505 -47.986218,41.1918 47.986218,37.82198 z m 3.653007,1.20509 v 80.68759 L 133.6828,261.85533 V 160.30598 Z" />
      <path
         id="rect11-0"
         style="fill:#384160;fill-opacity:1;stroke:#f17e06;stroke-width:0.308972"
         d="m 251.54692,42.422217 -50.6243,13.775386 v 71.170337 l 0.19224,0.16484 50.43206,-22.39449 z m -56.9774,15.50448 -56.60068,15.401644 30.89682,26.521895 z m 2.70009,2.541963 -25.61394,41.77626 25.61394,21.98729 z m -60.25627,16.853752 v 74.478658 l 29.91807,-48.7965 z M 169.72142,105.39925 139.33,154.9678 197.26961,129.24017 v -0.19327 z m 81.8255,4.53564 -46.7496,20.75894 46.7496,40.13037 z m -50.44602,22.4007 -0.17828,0.0791 v 78.95125 l 48.08905,-37.90311 z m -3.83129,1.70119 -60.25627,26.75651 v 100.94474 l 60.25627,-47.49323 z" />
      <path
         id="rect12"
         style="fill:#5f6ea3;fill-opacity:1;stroke:#f17e06;stroke-width:0.202031"
         d="m 137.81846,21.484993 -50.088931,7.72356 44.898551,9.801469 49.22542,-10.51202 z m 52.20095,8.313188 -50.34163,10.750765 58.57524,12.786817 51.86246,-13.96659 z M 79.548116,30.469975 22.005892,39.342818 70.149723,52.351843 125.57115,40.516907 Z M 132.62136,42.055831 76.443396,54.052515 135.91522,70.122852 192.00275,55.018864 Z" />
    </g>
  </g>
  <path
     style="font-size:60px;font-family:Ethnocentric;-inkscape-font-specification:Ethnocentric;fill:url(#linearGradient4);stroke:#384160;stroke-width:1.94204"
     d="M 198.48863,37.825705 186.19553,49.0701 q -2.03914,1.864356 -3.43741,3.1461 -1.39826,1.223484 -2.3887,2.097401 -0.99044,0.815655 -1.68957,1.398266 -0.64088,0.52435 -1.16523,0.932178 0.52435,0.349567 1.16523,0.873917 0.64087,0.52435 1.68957,1.514789 1.0487,0.932178 2.62175,2.388706 1.57305,1.456527 3.96175,3.67045 L 199.4208,76.802391 H 182.40856 L 169.12502,63.926685 155.43366,76.802391 h -14.97311 l 12.70093,-11.710484 q 2.21392,-2.039139 3.72871,-3.379145 1.51479,-1.398267 2.50523,-2.272183 0.99044,-0.873917 1.63131,-1.398267 0.69913,-0.52435 1.22348,-0.932178 -0.52435,-0.407828 -1.16522,-0.873917 -0.64087,-0.52435 -1.63131,-1.398266 -0.99044,-0.932178 -2.50523,-2.272184 -1.51479,-1.398267 -3.78697,-3.553928 L 141.21795,37.825705 h 16.72094 l 12.40962,12.118312 12.52614,-12.118312 z m 17.47839,38.976686 H 203.90697 V 37.825705 h 12.06005 z m 47.01676,0.640872 q -1.16523,0 -2.33045,-0.407828 -1.10696,-0.349566 -2.50523,-1.689572 L 234.26105,53.905773 V 76.802391 H 223.30796 V 44.467472 q 0,-1.922617 0.52435,-3.320883 0.58261,-1.398267 1.45653,-2.272184 0.93217,-0.873917 2.0974,-1.281744 1.22348,-0.407828 2.50522,-0.407828 1.10696,0 2.21393,0.407828 1.16522,0.349566 2.62175,1.689572 l 23.88705,21.44009 V 37.825705 h 11.01135 v 32.276658 q 0,1.922616 -0.58261,3.320883 -0.52435,1.398267 -1.45653,2.330445 -0.87391,0.873917 -2.0974,1.281744 -1.22348,0.407828 -2.50522,0.407828 z m 59.01849,-10.661784 -7.74873,10.020912 H 276.73338 V 37.825705 h 45.15236 l -7.80699,10.137434 h -25.22706 v 4.660889 h 30.87839 l -6.93307,8.85569 h -23.94532 v 5.301761 z m 20.6244,10.020912 7.28264,-10.020912 h 9.78787 q 1.74783,0 3.61219,0 1.92261,0 3.32088,0.116522 -0.81565,-1.0487 -1.92262,-2.62175 -1.0487,-1.631311 -2.03913,-3.029578 L 355.67716,50.934456 337.38317,76.802391 H 323.1092 l 24.99402,-35.247975 q 1.22348,-1.689572 3.08784,-3.029578 1.86435,-1.340005 4.71915,-1.340005 2.73827,0 4.54436,1.281744 1.86436,1.223484 3.1461,3.087839 l 24.35315,35.247975 z m 104.92828,0 H 431.41662 L 422.73571,66.490174 H 404.20868 V 76.802391 H 392.14863 V 56.87709 h 33.90797 q 2.79653,0 4.71915,-1.165223 1.92261,-1.165222 1.92261,-3.204361 0,-2.272183 -1.74783,-3.379145 -1.74783,-1.165222 -4.89393,-1.165222 h -33.90797 l 7.86525,-10.137434 h 25.05228 q 3.32088,0 6.87481,0.640872 3.55393,0.582612 6.46698,2.155662 2.91306,1.57305 4.77742,4.253061 1.92261,2.680011 1.92261,6.874812 0,2.272183 -0.69913,4.311322 -0.69913,2.039139 -2.03914,3.67045 -1.28174,1.631311 -3.20436,2.796534 -1.86436,1.106961 -4.25306,1.57305 0.99044,0.757394 2.21392,1.922617 1.22348,1.165222 3.26262,3.204361 z M 500.2813,37.825705 492.47431,47.963139 H 478.5499 V 76.802391 H 466.48985 V 47.963139 h -18.29399 l 7.80699,-10.137434 z"
     id="text1"
     aria-label="XINEART" />
</svg>
