<?xml version="1.0" encoding="UTF-8" standalone="no"?>
<!-- Created with Inkscape (http://www.inkscape.org/) -->

<svg
   width="128"
   height="128"
   viewBox="0 0 128 128"
   version="1.1"
   id="svg1"
   sodipodi:docname="logo.svg"
   inkscape:version="1.3 (0e150ed6c4, 2023-07-21)"
   xmlns:inkscape="http://www.inkscape.org/namespaces/inkscape"
   xmlns:sodipodi="http://sodipodi.sourceforge.net/DTD/sodipodi-0.dtd"
   xmlns="http://www.w3.org/2000/svg"
   xmlns:svg="http://www.w3.org/2000/svg">
  <sodipodi:namedview
     id="namedview1"
     pagecolor="#ffffff"
     bordercolor="#000000"
     borderopacity="0.25"
     inkscape:showpageshadow="2"
     inkscape:pageopacity="0.0"
     inkscape:pagecheckerboard="0"
     inkscape:deskcolor="#d1d1d1"
     inkscape:zoom="3.1757814"
     inkscape:cx="63.448952"
     inkscape:cy="64.393601"
     inkscape:window-width="1920"
     inkscape:window-height="1009"
     inkscape:window-x="-8"
     inkscape:window-y="-8"
     inkscape:window-maximized="1"
     inkscape:current-layer="layer1" />
  <defs
     id="defs1" />
  <g
     inkscape:label="Layer 1"
     inkscape:groupmode="layer"
     id="layer1">
    <rect
       style="fill:#ffffff;stroke:#6fbff2;stroke-width:0.5"
       id="rect1"
       width="128.24986"
       height="128.24986"
       x="0.44531202"
       y="-0.0078082145" />
    <path
       id="path2"
       style="fill:#c2a291;fill-opacity:1;stroke:#c2a291;stroke-width:4;stroke-dasharray:none;stroke-opacity:1"
       d="M 61.621756,19.982569 A 41.915574,41.915574 0 0 0 19.705888,61.898438 41.915574,41.915574 0 0 0 61.621756,103.8143 41.915574,41.915574 0 0 0 93.151644,89.49451 c 1.409881,2.611879 2.427009,4.303662 3.04951,5.071412 2.597468,-0.08312 4.415966,-0.114852 5.454956,-0.09407 l 6.35807,0.09407 0.31118,-0.312618 v -1.994411 l -0.31118,-0.311173 c -1.28833,0 -2.22307,-0.239937 -2.8049,-0.717871 -0.56105,-0.498712 -1.94247,-2.638404 -4.14513,-6.420318 l -2.227424,-3.826717 a 41.915574,41.915574 0 0 0 4.700894,-19.084376 41.915574,41.915574 0 0 0 -0.44143,-6.041119 c 0.97948,-1.179785 1.67508,-1.915935 2.05085,-2.155061 0.47794,-0.290917 1.43334,-0.446705 2.86714,-0.467485 l 0.31118,-0.311174 v -2.05809 l -0.31118,-0.311175 c -1.4338,0.08312 -2.84695,0.124469 -4.2392,0.124469 -0.59375,10e-7 -1.19465,-0.0285 -1.79901,-0.07092 A 41.915574,41.915574 0 0 0 61.621756,19.982569 Z" />
    <path
       id="path1"
       style="fill:#ffffff;fill-opacity:1;stroke:#c2a291;stroke-width:0.409788;stroke-dasharray:none;stroke-opacity:1"
       d="M 61.439393,26.842872 A 35.097637,35.097637 0 0 0 26.341856,61.94041 35.097637,35.097637 0 0 0 61.439393,97.037948 35.097637,35.097637 0 0 0 74.307526,94.505135 c -0.546485,-0.02038 -1.093329,-0.03327 -1.639815,-0.03327 -1.932516,0 -3.345674,0.03172 -4.239203,0.09407 l -0.311175,-0.312618 v -1.994411 l 0.311175,-0.343015 c 1.703939,-0.124678 2.732433,-0.301139 3.085689,-0.529717 0.623392,-0.39482 2.036549,-2.087816 4.239203,-5.080099 l 4.082893,-5.517189 c 0.166238,-0.207798 1.828947,-2.45231 4.987469,-6.732938 l -2.367817,-4.176969 -3.803561,-6.576627 c -2.701367,-4.654664 -4.758355,-7.407892 -6.171377,-8.259862 -0.477935,-0.290916 -0.977037,-0.437091 -1.49653,-0.437091 -0.415596,0 -1.059425,0.03174 -1.932174,0.09408 l -0.40525,-0.311174 -0.248939,-1.652841 0.28078,-0.467485 c 2.929945,-0.602613 6.700605,-1.433967 11.31371,-2.493734 1.309124,0.85197 2.660255,2.390627 4.052499,4.61406 0.664951,1.080532 1.70306,2.929319 3.116082,5.547567 l 3.522783,6.546233 4.052499,-5.922438 c 0.562352,-0.824324 1.042486,-1.53952 1.538501,-2.275189 A 35.097637,35.097637 0 0 0 61.439393,26.842872 Z m -6.16414,7.15845 h 21.107732 c 7.027538,0 9.181485,3.714803 6.463736,11.144373 l -1.013125,2.773067 h -8.080394 c 0.820147,-2.540848 0.208571,-3.810796 -1.833755,-3.810796 h -9.81718 c -2.717744,0 -4.816366,2.010657 -6.295847,6.030987 l -4.438934,12.108289 c -1.4634,4.020329 -0.836225,6.030987 1.881517,6.030987 h 10.108091 c 1.929759,0 3.432405,-1.383483 4.509853,-4.14947 h 7.960266 L 74.59699,67.506807 C 71.879248,74.968539 66.990985,78.698942 59.931285,78.698941 H 38.872763 c -7.075781,-0.06432 -9.24677,-3.794727 -6.512946,-11.192134 l 8.274335,-22.361112 c 2.717743,-7.42957 7.597483,-11.144373 14.641101,-11.144373 z M 96.3372,64.736634 c -1.092958,1.493013 -2.256788,3.092351 -3.72106,5.142332 0.448923,0.826014 1.31065,2.371079 1.926385,3.488044 A 35.097637,35.097637 0 0 0 96.3372,64.736634 Z m -9.673893,12.748005 -2.461894,3.52278 c -2.965235,4.25017 -5.718489,8.548536 -8.269993,12.892733 A 35.097637,35.097637 0 0 0 89.543476,82.815123 Z" />
  </g>
</svg>
