<?xml version="1.0" encoding="UTF-8" standalone="no"?>
<!-- Created with Inkscape (http://www.inkscape.org/) -->

<svg
   width="512"
   height="128"
   viewBox="0 0 512 128"
   version="1.1"
   id="svg1"
   sodipodi:docname="logo-name.svg"
   inkscape:version="1.3 (0e150ed6c4, 2023-07-21)"
   xmlns:inkscape="http://www.inkscape.org/namespaces/inkscape"
   xmlns:sodipodi="http://sodipodi.sourceforge.net/DTD/sodipodi-0.dtd"
   xmlns="http://www.w3.org/2000/svg"
   xmlns:svg="http://www.w3.org/2000/svg">
  <sodipodi:namedview
     id="namedview1"
     pagecolor="#ffffff"
     bordercolor="#000000"
     borderopacity="0.25"
     inkscape:showpageshadow="2"
     inkscape:pageopacity="0.0"
     inkscape:pagecheckerboard="0"
     inkscape:deskcolor="#d1d1d1"
     inkscape:zoom="1.5878907"
     inkscape:cx="264.18695"
     inkscape:cy="64.551042"
     inkscape:window-width="1920"
     inkscape:window-height="1009"
     inkscape:window-x="-8"
     inkscape:window-y="-8"
     inkscape:window-maximized="1"
     inkscape:current-layer="layer1" />
  <defs
     id="defs1" />
  <g
     inkscape:label="Layer 1"
     inkscape:groupmode="layer"
     id="layer1">
    <path
       d="m 181.95106,71.10405 -1.16211,3.190107 q -3.85091,10.572924 -13.85417,10.572924 h -19.89259 q -10.02605,-0.09115 -6.15235,-10.572924 l 7.81576,-21.123061 q 3.85091,-10.527351 13.83139,-10.527351 h 19.93816 q 9.95769,0 6.10678,10.527351 l -0.95703,2.620444 h -7.63347 q 1.16211,-3.600263 -1.73178,-3.600263 h -9.27409 q -3.85091,0 -5.94727,5.696619 l -4.19271,11.43881 q -2.07357,5.696618 1.77734,5.696618 h 9.54754 q 2.73437,0 4.26107,-3.919274 z m 24.63218,8.932298 q -1.77734,4.899092 -7.70183,4.899092 h -11.82618 q -5.94727,-0.04557 -4.16992,-4.899092 L 186.44,70.260951 q 1.75456,-4.876305 7.67904,-4.876305 h 11.84897 q 5.92448,0 4.16992,4.876305 z m -8.11198,-10.231127 q -2.27865,0 -3.23568,2.643231 l -1.91407,5.286462 q -0.95703,2.643231 1.32162,2.643231 2.27865,0 3.23568,-2.643231 l 1.91406,-5.286462 q 0.95703,-2.643231 -1.32161,-2.643231 z m 24.4271,-0.638021 -4.89909,13.421233 q -0.47852,1.572267 1.45833,2.278648 h -8.43099 q -2.07357,0 -1.25326,-2.278648 l 5.49154,-15.061859 q -0.13672,-1.481121 -1.43555,-2.278647 h 8.431 q 2.07357,0 1.23047,2.278647 l -0.11393,0.341797 q 2.27864,-0.729167 4.35221,-2.620444 h 5.92449 q 2.07356,0 1.23047,2.278647 l -5.49154,15.061859 q -0.47852,1.572267 1.45833,2.278648 h -8.431 q -2.07356,0 -1.25325,-2.278648 l 4.42057,-12.099617 q 0.41016,-1.139324 -1.8457,-1.276043 z m 21.98894,-15.745453 0.20508,-0.638021 q 0.5013,-1.412762 -0.8431,-2.096356 h 9.22852 q 1.93685,0 1.07097,2.529299 l -0.0684,0.205078 h 7.63347 l -1.23047,3.463544 h -7.63347 l -9.25131,26.090512 q -0.27344,0.820313 0.56966,0.820313 h 0.86589 l -0.41016,1.139324 h -8.29427 q -2.96225,0 -1.80014,-3.326825 l 8.72722,-24.723324 h -8.04362 l 1.23047,-3.463544 z m 22.17124,16.383474 q -2.27865,0 -3.25846,2.688804 l -3.46355,9.365241 q -0.5013,1.959637 1.38998,3.007815 h -9.13738 q -2.98503,0 -1.89128,-2.939455 l 4.62566,-12.509775 q 0.86588,-2.916668 -0.54688,-4.033205 h 11.43881 q 0.27344,0 0.20508,0.31901 -0.41016,2.073569 -0.0684,2.643231 0.36458,0.569662 2.27865,-1.184896 1.91406,-1.777345 4.8763,-1.777345 h 2.5293 l -1.61784,4.420575 z m 13.55796,12.783212 q -0.47851,1.572267 1.45834,2.278648 h -8.431 q -2.07357,0 -1.25326,-2.278648 l 5.49154,-15.061859 q -0.13671,-1.481121 -1.43554,-2.278647 h 8.43099 q 2.07357,0 1.23047,2.278647 z m 9.18295,-25.406918 -1.98242,5.582686 h -7.9297 l 1.95964,-5.582686 z m 19.50521,8.203131 q 5.92449,0 4.14714,4.876305 l -3.57748,9.775397 q -1.77734,4.899092 -7.70182,4.899092 h -11.82618 q -5.71941,-0.04557 -4.16993,-4.899092 l 9.82097,-27.070331 q 0.41016,-1.367188 -1.45833,-2.278647 h 9.57032 q 2.27864,0 1.23047,2.552085 l -4.26107,12.145191 z m -7.54232,4.420575 q -2.27865,0 -3.23568,2.643231 l -1.91406,5.286462 q -0.95704,2.643231 1.32161,2.643231 2.27865,0 3.23568,-2.643231 l 1.91407,-5.286462 q 0.95703,-2.643231 -1.32162,-2.643231 z m 34.95445,-4.420575 h 5.92448 l -5.30925,14.651702 q -1.77734,4.899092 -7.70183,4.899092 h -11.82618 q -5.94727,-0.04557 -4.16992,-4.899092 l 3.55469,-9.775397 q 1.75456,-4.876305 7.67904,-4.876305 h 4.23829 l -5.03582,12.350268 q -0.95703,2.643231 1.32162,2.643231 2.27865,0 3.23568,-2.643231 l 3.8737,-9.980475 q 1.0026,-2.369793 4.2155,-2.369793 z m 14.08205,-11.962899 0.20508,-0.638021 q 0.5013,-1.412762 -0.8431,-2.096356 h 9.22852 q 1.93685,0 1.07097,2.529299 l -0.0684,0.205078 h 7.63346 l -1.23047,3.463544 h -7.63346 l -9.25131,26.090512 q -0.27344,0.820313 0.56966,0.820313 h 0.86589 l -0.41016,1.139324 h -8.29428 q -2.96224,0 -1.80013,-3.326825 l 8.72722,-24.723324 h -8.04362 l 1.23046,-3.463544 z m 30.05536,26.614601 q -1.77735,4.899092 -7.70183,4.899092 h -11.82618 q -5.94727,-0.04557 -4.16992,-4.899092 l 3.55469,-9.775397 q 1.75455,-4.876305 7.67904,-4.876305 h 11.84896 q 5.92449,0 4.16993,4.876305 z m -8.11199,-10.231127 q -2.27864,0 -3.23568,2.643231 l -1.91406,5.286462 q -0.95703,2.643231 1.32162,2.643231 2.27864,0 3.23568,-2.643231 l 1.91406,-5.286462 q 0.95703,-2.643231 -1.32162,-2.643231 z m 27.57163,0 q -2.27864,0 -3.25846,2.688804 l -3.46355,9.365241 q -0.5013,1.959637 1.38998,3.007815 h -9.13738 q -2.98503,0 -1.89127,-2.939455 l 4.62565,-12.509775 q 0.86589,-2.916668 -0.54688,-4.033205 h 11.43881 q 0.27344,0 0.20508,0.31901 -0.41015,2.073569 -0.0684,2.643231 0.36459,0.569662 2.27865,-1.184896 1.91406,-1.777345 4.87631,-1.777345 h 2.52929 l -1.61784,4.420575 z M 434.33405,64.51876 V 45.537627 q -0.29622,-2.096356 -2.39258,-2.848309 h 15.10743 q 3.3724,0 3.3724,3.190106 v 7.838547 l 12.82879,-8.636074 q 0.41015,-0.341797 -0.43295,-2.392579 h 15.4948 q 3.05339,0 -0.34179,2.278647 L 450.4213,63.470582 v 18.434257 q 0,0.569662 0.91146,0.638021 h 0.79753 l -1.93685,2.324221 h -12.50978 q -3.34961,0 -3.34961,-3.190107 v -7.360031 l -11.2793,7.587896 q -0.8431,0.569662 -0.15951,0.638021 h 0.38737 l -1.66341,2.324221 h -14.46941 q -3.0306,0 0.34179,-2.278648 z"
       id="text4"
       style="font-size:46.6667px;font-family:Xenogears;-inkscape-font-specification:Xenogears;fill:#3e342f;stroke:#3e342f;stroke-width:0.5"
       aria-label="ContributorX" />
    <path
       d="m 179.95106,69.10405 -1.16211,3.190107 q -3.85091,10.572924 -13.85417,10.572924 h -19.89259 q -10.02605,-0.09115 -6.15235,-10.572924 l 7.81576,-21.123061 q 3.85091,-10.527351 13.83139,-10.527351 h 19.93816 q 9.95769,0 6.10678,10.527351 l -0.95703,2.620444 h -7.63347 q 1.16211,-3.600263 -1.73178,-3.600263 h -9.27409 q -3.85091,0 -5.94727,5.696619 l -4.19271,11.43881 q -2.07357,5.696618 1.77734,5.696618 h 9.54754 q 2.73437,0 4.26107,-3.919274 z m 24.63218,8.932298 q -1.77734,4.899092 -7.70183,4.899092 h -11.82618 q -5.94727,-0.04557 -4.16992,-4.899092 L 184.44,68.260951 q 1.75456,-4.876305 7.67904,-4.876305 h 11.84897 q 5.92448,0 4.16992,4.876305 z m -8.11198,-10.231127 q -2.27865,0 -3.23568,2.643231 l -1.91407,5.286462 q -0.95703,2.643231 1.32162,2.643231 2.27865,0 3.23568,-2.643231 l 1.91406,-5.286462 q 0.95703,-2.643231 -1.32161,-2.643231 z m 24.4271,-0.638021 -4.89909,13.421233 q -0.47852,1.572267 1.45833,2.278648 h -8.43099 q -2.07357,0 -1.25326,-2.278648 l 5.49154,-15.061859 q -0.13672,-1.481121 -1.43555,-2.278647 h 8.431 q 2.07357,0 1.23047,2.278647 l -0.11393,0.341797 q 2.27864,-0.729167 4.35221,-2.620444 h 5.92449 q 2.07356,0 1.23047,2.278647 l -5.49154,15.061859 q -0.47852,1.572267 1.45833,2.278648 h -8.431 q -2.07356,0 -1.25325,-2.278648 l 4.42057,-12.099617 q 0.41016,-1.139324 -1.8457,-1.276043 z m 21.98894,-15.745453 0.20508,-0.638021 q 0.5013,-1.412762 -0.8431,-2.096356 h 9.22852 q 1.93685,0 1.07097,2.529299 l -0.0684,0.205078 h 7.63347 l -1.23047,3.463544 h -7.63347 l -9.25131,26.090512 q -0.27344,0.820313 0.56966,0.820313 h 0.86589 l -0.41016,1.139324 h -8.29427 q -2.96225,0 -1.80014,-3.326825 l 8.72722,-24.723324 h -8.04362 l 1.23047,-3.463544 z m 22.17124,16.383474 q -2.27865,0 -3.25846,2.688804 l -3.46355,9.365241 q -0.5013,1.959637 1.38998,3.007815 h -9.13738 q -2.98503,0 -1.89128,-2.939455 l 4.62566,-12.509775 q 0.86588,-2.916668 -0.54688,-4.033205 h 11.43881 q 0.27344,0 0.20508,0.31901 -0.41016,2.073569 -0.0684,2.643231 0.36458,0.569662 2.27865,-1.184896 1.91406,-1.777345 4.8763,-1.777345 h 2.5293 l -1.61784,4.420575 z m 13.55796,12.783212 q -0.47851,1.572267 1.45834,2.278648 h -8.431 q -2.07357,0 -1.25326,-2.278648 l 5.49154,-15.061859 q -0.13671,-1.481121 -1.43554,-2.278647 h 8.43099 q 2.07357,0 1.23047,2.278647 z m 9.18295,-25.406918 -1.98242,5.582686 h -7.9297 l 1.95964,-5.582686 z m 19.50521,8.203131 q 5.92449,0 4.14714,4.876305 l -3.57748,9.775397 q -1.77734,4.899092 -7.70182,4.899092 h -11.82618 q -5.71941,-0.04557 -4.16993,-4.899092 l 9.82097,-27.070331 q 0.41016,-1.367188 -1.45833,-2.278647 h 9.57032 q 2.27864,0 1.23047,2.552085 l -4.26107,12.145191 z m -7.54232,4.420575 q -2.27865,0 -3.23568,2.643231 l -1.91406,5.286462 q -0.95704,2.643231 1.32161,2.643231 2.27865,0 3.23568,-2.643231 l 1.91407,-5.286462 q 0.95703,-2.643231 -1.32162,-2.643231 z m 34.95445,-4.420575 h 5.92448 l -5.30925,14.651702 q -1.77734,4.899092 -7.70183,4.899092 h -11.82618 q -5.94727,-0.04557 -4.16992,-4.899092 l 3.55469,-9.775397 q 1.75456,-4.876305 7.67904,-4.876305 h 4.23829 l -5.03582,12.350268 q -0.95703,2.643231 1.32162,2.643231 2.27865,0 3.23568,-2.643231 l 3.8737,-9.980475 q 1.0026,-2.369793 4.2155,-2.369793 z m 14.08205,-11.962899 0.20508,-0.638021 q 0.5013,-1.412762 -0.8431,-2.096356 h 9.22852 q 1.93685,0 1.07097,2.529299 l -0.0684,0.205078 h 7.63346 l -1.23047,3.463544 h -7.63346 l -9.25131,26.090512 q -0.27344,0.820313 0.56966,0.820313 h 0.86589 l -0.41016,1.139324 h -8.29428 q -2.96224,0 -1.80013,-3.326825 l 8.72722,-24.723324 h -8.04362 l 1.23046,-3.463544 z m 30.05536,26.614601 q -1.77735,4.899092 -7.70183,4.899092 h -11.82618 q -5.94727,-0.04557 -4.16992,-4.899092 l 3.55469,-9.775397 q 1.75455,-4.876305 7.67904,-4.876305 h 11.84896 q 5.92449,0 4.16993,4.876305 z m -8.11199,-10.231127 q -2.27864,0 -3.23568,2.643231 l -1.91406,5.286462 q -0.95703,2.643231 1.32162,2.643231 2.27864,0 3.23568,-2.643231 l 1.91406,-5.286462 q 0.95703,-2.643231 -1.32162,-2.643231 z m 27.57163,0 q -2.27864,0 -3.25846,2.688804 l -3.46355,9.365241 q -0.5013,1.959637 1.38998,3.007815 h -9.13738 q -2.98503,0 -1.89127,-2.939455 l 4.62565,-12.509775 q 0.86589,-2.916668 -0.54688,-4.033205 h 11.43881 q 0.27344,0 0.20508,0.31901 -0.41015,2.073569 -0.0684,2.643231 0.36459,0.569662 2.27865,-1.184896 1.91406,-1.777345 4.87631,-1.777345 h 2.52929 l -1.61784,4.420575 z M 432.33405,62.51876 V 43.537627 q -0.29622,-2.096356 -2.39258,-2.848309 h 15.10743 q 3.3724,0 3.3724,3.190106 v 7.838547 l 12.82879,-8.636074 q 0.41015,-0.341797 -0.43295,-2.392579 h 15.4948 q 3.05339,0 -0.34179,2.278647 L 448.4213,61.470582 v 18.434257 q 0,0.569662 0.91146,0.638021 h 0.79753 l -1.93685,2.324221 h -12.50978 q -3.34961,0 -3.34961,-3.190107 v -7.360031 l -11.2793,7.587896 q -0.8431,0.569662 -0.15951,0.638021 h 0.38737 l -1.66341,2.324221 h -14.46941 q -3.0306,0 0.34179,-2.278648 z"
       id="text2"
       style="font-size:46.6667px;font-family:Xenogears;-inkscape-font-specification:Xenogears;fill:#c2a291;stroke:#384160;stroke-width:0.5"
       aria-label="ContributorX" />
    <path
       id="path2"
       style="fill:#c2a291;fill-opacity:1;stroke:#3e342f;stroke-width:2.5;stroke-dasharray:none;stroke-opacity:1"
       d="M 61.421312,16.472854 A 45.425265,45.425265 0 0 0 15.995728,61.898438 45.425265,45.425265 0 0 0 61.421312,107.32402 45.425265,45.425265 0 0 0 95.591273,91.805195 c 1.527933,2.830578 2.630228,4.664018 3.304852,5.496053 2.814965,-0.09008 4.785725,-0.124468 5.911715,-0.10195 l 6.89045,0.10195 0.33724,-0.338794 v -2.161408 l -0.33724,-0.337228 c -1.39621,0 -2.40921,-0.260028 -3.03977,-0.77798 -0.60803,-0.54047 -2.10512,-2.859323 -4.49221,-6.957906 l -2.41393,-4.147137 a 45.425265,45.425265 0 0 0 5.09452,-20.682357 45.425265,45.425265 0 0 0 -0.4784,-6.546956 c 1.06149,-1.278572 1.81534,-2.076361 2.22257,-2.33551 0.51796,-0.315275 1.55336,-0.484109 3.10722,-0.506629 l 0.33724,-0.337229 v -2.230419 l -0.33724,-0.337229 c -1.55386,0.09008 -3.08534,0.134891 -4.59416,0.134891 -0.64347,1e-6 -1.29469,-0.03089 -1.94965,-0.07686 A 45.425265,45.425265 0 0 0 61.421312,16.472854 Z" />
    <path
       id="path1"
       style="fill:#ffffff;fill-opacity:1;stroke:#3e342f;stroke-width:1;stroke-dasharray:none;stroke-opacity:1"
       d="M 61.223679,23.907586 A 38.036446,38.036446 0 0 0 23.187341,61.943924 38.036446,38.036446 0 0 0 61.223679,99.980263 38.036446,38.036446 0 0 0 75.169292,97.235372 c -0.592244,-0.02209 -1.184876,-0.03607 -1.777121,-0.03607 -2.094331,0 -3.625816,0.0344 -4.594162,0.10195 l -0.33723,-0.338794 V 94.80105 l 0.33723,-0.371736 c 1.846614,-0.135117 2.961226,-0.326354 3.344061,-0.574071 0.67559,-0.427879 2.207075,-2.262634 4.594162,-5.505469 l 4.424763,-5.979156 c 0.180158,-0.225197 1.982089,-2.657647 5.405081,-7.296702 l -2.56608,-4.526717 -4.122041,-7.127304 c -2.927559,-5.04441 -5.156783,-8.028173 -6.688122,-8.95148 -0.517953,-0.315275 -1.058846,-0.473689 -1.621838,-0.473689 -0.450394,0 -1.148132,0.03439 -2.093959,0.101953 l -0.439182,-0.33723 -0.269784,-1.791237 0.304291,-0.506628 c 3.175275,-0.653071 7.261663,-1.554037 12.261033,-2.702541 1.41874,0.923307 2.883006,2.5908 4.391825,5.000406 0.720629,1.171024 1.845661,3.174614 3.376999,6.012094 l 3.817754,7.094366 4.391824,-6.418338 c 0.609439,-0.893347 1.129776,-1.668429 1.667324,-2.465696 A 38.036446,38.036446 0 0 0 61.223679,23.907586 Z M 54.5434,31.66543 h 22.875133 c 7.61597,0 9.950273,4.025852 7.00496,12.077518 l -1.097956,3.005263 h -8.756984 c 0.88882,-2.753599 0.226035,-4.129884 -1.987301,-4.129884 H 61.942057 c -2.945307,0 -5.219652,2.179014 -6.823014,6.535976 l -4.810616,13.122145 c -1.585934,4.356961 -0.906244,6.535976 2.039061,6.535976 h 10.954466 c 2.091342,0 3.719808,-1.499325 4.887474,-4.496915 h 8.626798 l -1.333233,3.6609 c -2.945305,8.086521 -8.242874,12.129279 -15.8937,12.129278 H 36.767491 C 29.099237,80.035977 26.746467,75.993218 29.709201,67.976409 L 38.676366,43.742948 C 41.621671,35.691282 46.910004,31.66543 54.5434,31.66543 Z m 44.500162,33.308854 c -1.184474,1.618026 -2.445753,3.35128 -4.032633,5.572911 0.486512,0.895178 1.420394,2.569615 2.087686,3.780106 a 38.036446,38.036446 0 0 0 1.944947,-9.353017 z m -10.483911,13.815425 -2.668034,3.81775 c -3.213521,4.606047 -6.197311,9.264326 -8.962459,13.972273 A 38.036446,38.036446 0 0 0 91.680984,84.566527 Z" />
  </g>
</svg>
